<?xml version="1.0" standalone="no"?><!DOCTYPE svg PUBLIC "-//W3C//DTD SVG 1.1//EN" "http://www.w3.org/Graphics/SVG/1.1/DTD/svg11.dtd"><svg t="1533459919200" class="icon" style="" viewBox="0 0 1024 1024" version="1.1" xmlns="http://www.w3.org/2000/svg" p-id="847" xmlns:xlink="http://www.w3.org/1999/xlink" width="128" height="128"><defs><style type="text/css"></style></defs><path d="M937.692612-8.5e-05 84.157397-8.5e-05C37.669803-8.5e-05 0 37.852075 0 84.54912L0 430.215595 0 443.838549 0 689.278293C0 735.985493 37.679863 773.833301 84.157397 773.833301L145.581483 773.833301 146.132233 773.178795C148.361131 773.602133 150.656179 773.833301 153.0073 773.833301L474.106505 773.833301 474.106505 887.677099 331.055906 887.677099C310.722611 887.677099 294.240273 904.237312 294.240273 924.666624 294.240273 945.096021 310.722611 961.656149 331.055906 961.656149L689.350357 961.656149C709.683652 961.656149 726.165982 945.096021 726.165982 924.666624 726.165982 904.237312 709.683652 887.677099 689.350357 887.677099L547.737754 887.677099 547.737754 773.833301 597.818914 773.833301 727.001463 773.833301 937.692612 773.833301C984.174464 773.833301 1021.844258 735.973973 1021.844258 689.278293L1021.844258 84.54912C1021.844258 37.846272 984.164395-8.5e-05 937.692612-8.5e-05L937.692612-8.5e-05 937.692612-8.5e-05ZM948.220194 657.572352C948.220194 680.925952 929.391053 699.854165 906.129997 699.854165L727.001463 699.854165 660.666615 699.854165 207.832414 699.854165 153.0073 699.854165 115.70851 699.854165C92.470468 699.854165 73.624064 680.943275 73.624064 657.572352L73.624064 443.838549 73.624064 430.215595 73.624064 116.255147C73.624064 92.901461 92.453205 73.971797 115.70851 73.971797L906.129997 73.971797C929.373798 73.971797 948.220194 92.889941 948.220194 116.255147L948.220194 657.572352 948.220194 657.572352 948.220194 657.572352ZM776.928751 222.580224C762.278426 207.860651 738.527019 207.860651 723.876693 222.580224L476.743791 470.880683 371.598814 365.238955C356.948497 350.519381 333.197082 350.519381 318.546756 365.238955 303.896431 379.958528 303.896431 403.82208 318.546756 418.541653L445.677286 546.272768C446.899584 548.013739 448.249865 549.694037 449.801463 551.251541 464.451789 565.971115 488.203196 565.971115 502.853521 551.251541L776.928751 275.882923C791.577634 261.163349 791.577634 237.299797 776.928751 222.580224L776.928751 222.580224 776.928751 222.580224Z" p-id="848"></path></svg>