<?xml version="1.0" standalone="no"?><!DOCTYPE svg PUBLIC "-//W3C//DTD SVG 1.1//EN" "http://www.w3.org/Graphics/SVG/1.1/DTD/svg11.dtd"><svg t="1533459927596" class="icon" style="" viewBox="0 0 1024 1024" version="1.1" xmlns="http://www.w3.org/2000/svg" p-id="967" xmlns:xlink="http://www.w3.org/1999/xlink" width="128" height="128"><defs><style type="text/css"></style></defs><path d="M921.6 803.84V972.8c0 30.72-20.48 51.2-51.2 51.2H153.6c-30.72 0-51.2-20.48-51.2-51.2v-168.96c0-97.28 35.84-189.44 97.28-266.24 20.48-20.48 51.2-25.6 71.68-5.12 20.48 20.48 25.6 51.2 5.12 71.68-46.08 56.32-71.68 128-71.68 199.68V921.6h614.4v-117.76c0-71.68-25.6-143.36-71.68-199.68-20.48-20.48-15.36-56.32 5.12-71.68 20.48-20.48 56.32-15.36 71.68 5.12 61.44 76.8 97.28 168.96 97.28 266.24zM230.4 281.6C230.4 128 358.4 0 512 0s281.6 128 281.6 281.6S665.6 563.2 512 563.2 230.4 435.2 230.4 281.6z m102.4 0C332.8 378.88 414.72 460.8 512 460.8s179.2-81.92 179.2-179.2S609.28 102.4 512 102.4 332.8 184.32 332.8 281.6z" p-id="968"></path></svg>